<?xml version="1.0" encoding="iso-8859-1"?>
<!-- Generator: Adobe Illustrator 19.0.0, SVG Export Plug-In . SVG Version: 6.00 Build 0)  -->
<svg fill="white" version="1.1" id="Capa_1" xmlns="http://www.w3.org/2000/svg" xmlns:xlink="http://www.w3.org/1999/xlink" x="0px" y="0px"
	 viewBox="0 0 459.786 459.786" style="enable-background:new 0 0 459.786 459.786;" xml:space="preserve">
<g id="XMLID_41_">
	<path id="XMLID_42_" d="M448.552,168.218l-7.468-16.504H422.97H301.604h-16.587l-8.005,14.527
		c-2.11,3.829-7.335,15.554-10.711,42.074c-3.513-4.667-7.14-9.631-10.853-14.716c-22.064-30.204-47.073-64.437-81.589-85.297
		c-18.007-10.884-41.549-20.113-64.587-25.321c-11.486-2.597-29.517-5.691-50.192-5.691h-16C19.326,77.29,0,96.616,0,120.37
		s19.326,43.08,43.08,43.08h17.134c25.373,0,41.218,6.851,60.547,26.18c16.049,16.049,29.232,37.88,43.189,60.993
		c23.217,38.446,49.531,82.022,96.518,109.432c25.528,14.891,51.843,22.441,78.212,22.441c18.46,0,36.835-3.726,54.613-11.074
		c22.22-9.185,40.1-25.39,51.707-46.865c9.672-17.895,14.785-38.944,14.785-60.872C459.786,198.138,451.188,174.042,448.552,168.218
		z M148.439,178.175c-2.529-2.899-5.13-5.707-7.824-8.401c-24.843-24.843-47.87-34.404-80.402-34.404H43.08c-8.284,0-15-6.716-15-15
		s6.716-15,15-15h16c19.409,0,36.116,3.218,44,5c22.264,5.033,42.761,13.809,56.255,21.965c7.033,4.251,13.706,9.294,20.07,14.875
		L148.439,178.175z M382.567,345.471c-14.01,5.791-28.694,8.945-43.887,8.945c-20.561,0-42.054-5.778-64.064-18.616
		c-54.138-31.581-77.572-89.364-108.958-135.133l33.54-33.54c37.575,42.477,63.974,97.181,92.11,97.181
		c0-65.831,10.296-84.514,10.296-84.514H422.97c0,0,8.736,19.308,8.736,83.89C431.706,295.864,417.666,330.963,382.567,345.471z"/>
</g>
<g>
</g>
<g>
</g>
<g>
</g>
<g>
</g>
<g>
</g>
<g>
</g>
<g>
</g>
<g>
</g>
<g>
</g>
<g>
</g>
<g>
</g>
<g>
</g>
<g>
</g>
<g>
</g>
<g>
</g>
</svg>
